<svg height="512pt" viewBox="0 0 512 512" width="512pt" xmlns="http://www.w3.org/2000/svg"><path d="m504 256c0 136.964844-111.035156 248-248 248s-248-111.035156-248-248 111.035156-248 248-248 248 111.035156 248 248zm0 0" fill="#fff"/><path d="m431.359375 80.640625c-30.777344-30.804687-69.132813-52.953125-111.199219-64.207031l-64.160156 239.566406zm0 0" fill="#ff8a65"/><path d="m191.808594 16.433594c-42.066406 11.257812-80.417969 33.40625-111.199219 64.207031l175.390625 175.359375zm0 0" fill="#ff8a65"/><path d="m495.566406 320.191406c11.246094-42.054687 11.246094-86.328125 0-128.382812l-239.566406 64.191406zm0 0" fill="#ff8a65"/><path d="m320.191406 495.566406c42.066406-11.257812 80.417969-33.40625 111.199219-64.207031l-175.390625-175.359375zm0 0" fill="#ff8a65"/><path d="m16.433594 191.808594c-11.246094 42.054687-11.246094 86.328125 0 128.382812l239.566406-64.191406zm0 0" fill="#ff8a65"/><path d="m80.640625 431.359375c30.78125 30.800781 69.136719 52.949219 111.199219 64.207031l64.160156-239.566406zm0 0" fill="#ff8a65"/><path d="m392 256c0 75.109375-60.890625 136-136 136s-136-60.890625-136-136 60.890625-136 136-136 136 60.890625 136 136zm0 0" fill="#a6e7ff"/><path d="m237.601562 183.832031 5.65625-5.65625c12.289063-12.09375 17.148438-29.847656 12.734376-46.511719-4.417969-16.667968-17.4375-29.683593-34.101563-34.101562-16.667969-4.417969-34.421875.441406-46.515625 12.734375l-45.253906 45.253906c-18.484375 18.789063-18.363282 48.96875.273437 67.605469s48.816407 18.761719 67.605469.277344l5.65625-5.65625 73.535156 73.535156-39.589844 39.597656 28.253907 28.289063 39.601562-39.589844 28.285157 28.277344-39.597657 39.601562 28.253907 28.28125 73.601562-73.546875zm-22.632812-22.625-33.9375 33.9375c-6.246094 6.25-16.378906 6.25-22.628906.003907-6.246094-6.246094-6.25-16.378907-.003906-22.628907l33.945312-33.945312c6.25-6.246094 16.378906-6.242188 22.628906.003906 6.246094 6.25 6.246094 16.382813-.003906 22.628906zm0 0" fill="#ffe082"/><g fill="#fff"><path d="m352 248h16v16h-16zm0 0"/><path d="m155.007812 305.066406 13.859376-8 7.996093 13.855469-13.855469 8zm0 0"/><path d="m335.140625 201.070312 13.855469-7.996093 8 13.855469-13.855469 8zm0 0"/><path d="m193.066406 348.992188 8-13.855469 13.859375 7.996093-8 13.859376zm0 0"/><path d="m297.074219 168.863281 7.996093-13.855469 13.859376 7.996094-8 13.859375zm0 0"/><path d="m141.074219 72.9375 13.855469-8 8 13.859375-13.859376 7.996094zm0 0"/><path d="m349.070312 433.199219 13.859376-8 8 13.859375-13.859376 7.996094zm0 0"/><path d="m40 248h16v16h-16zm0 0"/><path d="m143.667969 257.761719 15.933593-1.394531 1.394532 15.9375-15.9375 1.390624zm0 0"/><path d="m456 248h16v16h-16zm0 0"/><path d="m141.066406 439.0625 7.996094-13.859375 13.859375 8-8 13.855469zm0 0"/><path d="m349.066406 78.796875 8-13.855469 13.859375 8-8 13.855469zm0 0"/></g><path d="m220.601562 132.921875c-9.375-9.371094-24.566406-9.371094-33.9375 0l-33.945312 33.941406c-9.238281 9.394531-9.175781 24.484375.144531 33.804688 9.316407 9.316406 24.40625 9.375 33.800781.132812l33.9375-33.945312c9.367188-9.371094 9.367188-24.5625 0-33.933594zm-11.3125 22.628906-33.945312 33.945313c-3.125 3.132812-8.199219 3.136718-11.332031.011718-3.132813-3.125-3.136719-8.199218-.011719-11.332031l33.945312-33.945312c3.125-3.121094 8.191407-3.121094 11.316407.003906 3.121093 3.128906 3.121093 8.195313-.003907 11.316406zm0 0"/><path d="m256 0c-141.386719 0-256 114.613281-256 256s114.613281 256 256 256 256-114.613281 256-256c-.160156-141.320312-114.679688-255.839844-256-256zm163.832031 80.855469-68 68c-14.75-13.277344-32.089843-23.355469-50.929687-29.597657l24.90625-92.859374c35.089844 10.726562 67.257812 29.355468 94.023437 54.457031zm-74.785156 267.023437-39.589844-39.589844-39.601562 39.589844-16.96875-16.96875 39.601562-39.597656-84.855469-84.847656-11.3125 11.3125c-10.089843 10.175781-24.855468 14.179687-38.703124 10.492187-13.851563-3.691406-24.667969-14.507812-28.355469-28.355469-3.691407-13.851562.3125-28.617187 10.492187-38.707031l45.246094-45.253906c15.621094-15.628906 40.953125-15.636719 56.585938-.015625 15.628906 15.621094 15.636718 40.953125.015624 56.582031l-11.3125 11.3125 158.398438 158.398438-62.289062 62.226562-16.964844-16.976562zm-53.671875 31.050782c-42.410156 12.40625-88.21875 1.980468-121.085938-27.558594-32.863281-29.535156-48.101562-73.976563-40.273437-117.46875 22.273437 17.066406 53.734375 15.011718 73.601563-4.796875l62.222656 62.222656-39.59375 39.601563 39.59375 39.589843 39.601562-39.589843 16.957032 16.949218zm81.519531-71.082032-124-124c14.507813-14.515625 19.914063-35.800781 14.089844-55.480468 42.019531 2.167968 80.269531 24.910156 102.242187 60.792968 21.972657 35.882813 24.847657 80.289063 7.675782 118.703125zm-116.894531-291.847656c18.296875.011719 36.527344 2.117188 54.34375 6.28125l-24.863281 92.796875c-9.695313-2.035156-19.574219-3.066406-29.480469-3.078125h-.976562c-1.832032-2.625-3.886719-5.089844-6.136719-7.367188-7.96875-7.984374-18.171875-13.355468-29.261719-15.410156l-17.953125-66.941406c17.808594-4.164062 36.039063-6.269531 54.328125-6.28125zm-69.792969 10.398438 16.695313 62.28125c-12.566406 1.40625-24.28125 7.050781-33.214844 16l-26.863281 26.871093-50.65625-50.65625c26.765625-25.121093 58.9375-43.761719 94.039062-54.496093zm-105.351562 65.769531 50.65625 50.65625-7.070313 7.070312c-15.523437 15.476563-20.550781 38.605469-12.855468 59.128907l-85.1875-22.832032c10.726562-35.089844 29.355468-67.257812 54.457031-94.023437zm-64.855469 163.832031c.011719-18.296875 2.117188-36.527344 6.28125-54.34375l92.796875 24.871094c-4.113281 19.433594-4.125 39.511718-.039063 58.953125l-92.800781 24.863281c-4.148437-17.816406-6.238281-36.050781-6.238281-54.34375zm10.398438 69.808594 92.890624-24.886719c6.246094 18.835937 16.324219 36.175781 29.597657 50.925781l-68 68c-25.113281-26.765625-43.753907-58.9375-54.488281-94.039062zm65.785156 105.335937 68-68c14.75 13.277344 32.089844 23.355469 50.929687 29.597657l-24.921875 92.859374c-35.089844-10.726562-67.257812-29.355468-94.023437-54.457031zm163.816406 64.855469c-18.296875-.011719-36.527344-2.117188-54.34375-6.28125l24.863281-92.796875c9.695313 2.035156 19.574219 3.066406 29.480469 3.078125 9.902344-.019531 19.777344-1.066406 29.464844-3.128906l24.878906 92.847656c-17.816406 4.164062-36.046875 6.269531-54.34375 6.28125zm69.808594-10.398438-20.207032-75.328124 16.796876 16.796874 46.671874-46.671874 50.738282 50.738281c-26.757813 25.101562-58.917969 43.730469-94 54.464843zm105.335937-65.785156-50.738281-50.738281 26.875-26.871094-22.402344-22.398437c3.085938-6.105469 5.714844-12.429688 7.875-18.921875l92.847656 24.921875c-10.726562 35.089844-29.355468 67.257812-54.457031 94.023437zm64.855469-163.816406c-.011719 18.296875-2.117188 36.527344-6.28125 54.34375l-92.796875-24.871094c4.128906-19.433594 4.148437-39.511718.054687-58.953125l92.800782-24.863281c4.140625 17.816406 6.230468 36.050781 6.222656 54.34375zm-103.273438-44.921875c-6.246093-18.835937-16.324218-36.175781-29.597656-50.925781l68-68c25.109375 26.769531 43.742188 58.941406 54.472656 94.039062zm0 0"/><path d="m248 40h16v16h-16zm0 0"/><path d="m248 456h16v16h-16zm0 0"/><path d="m64.9375 154.933594 8-13.855469 13.855469 7.996094-8 13.859375zm0 0"/><path d="m425.199219 362.9375 8-13.859375 13.855469 8-7.996094 13.859375zm0 0"/><path d="m64.941406 357.074219 13.855469-8 8 13.859375-13.859375 7.996094zm0 0"/><path d="m425.203125 149.074219 13.855469-8 8 13.859375-13.859375 7.996094zm0 0"/><path d="m459.3125 24 10.34375-10.34375-11.3125-11.3125-37.65625 37.65625h91.3125v-16zm0 0"/><path d="m0 488h52.6875l-10.34375 10.34375 11.3125 11.3125 37.65625-37.65625h-91.3125zm0 0"/></svg>